<?xml version="1.0" encoding="UTF-8"?>
<svg width="1265px" height="253px" viewBox="0 0 1265 253" version="1.1" xmlns="http://www.w3.org/2000/svg" xmlns:xlink="http://www.w3.org/1999/xlink">
    <title>Compose Horizontal_nav_2 alignment</title>
    <defs>
        <linearGradient x1="161.086322%" y1="73.3733582%" x2="-20.9520209%" y2="11.9735937%" id="linearGradient-1">
            <stop stop-color="#61BEFF" offset="0%"></stop>
            <stop stop-color="#5D86FF" offset="100%"></stop>
        </linearGradient>
        <linearGradient x1="161.086322%" y1="110.371238%" x2="-20.9520209%" y2="-48.2187152%" id="linearGradient-2">
            <stop stop-color="#61BEFF" offset="0%"></stop>
            <stop stop-color="#5D86FF" offset="100%"></stop>
        </linearGradient>
        <linearGradient x1="161.086322%" y1="160.816715%" x2="-20.9520209%" y2="-130.289088%" id="linearGradient-3">
            <stop stop-color="#61BEFF" offset="0%"></stop>
            <stop stop-color="#5D86FF" offset="100%"></stop>
        </linearGradient>
    </defs>
    <g id="Compose-Horizontal_nav_2-alignment" stroke="none" stroke-width="1" fill="none" fill-rule="evenodd">
        <path d="M438.6,195 C449.721951,195 459.252846,193.194858 467.192683,189.584574 C475.13252,185.97429 481.821138,180.776725 487.258537,173.991881 L487.258537,173.991881 L477.434146,163.254398 C476.445528,162.196211 475.271545,161.667118 473.912195,161.667118 C473.108943,161.667118 472.36748,161.838295 471.687805,162.18065 C471.00813,162.523004 470.35935,162.97429 469.741463,163.534506 C467.702439,165.401894 465.647967,166.973613 463.578049,168.249662 C461.50813,169.52571 459.314634,170.568336 456.997561,171.377537 C454.680488,172.186739 452.147154,172.778078 449.397561,173.151556 C446.647967,173.525034 443.573984,173.711773 440.17561,173.711773 C434.491057,173.711773 429.177236,172.638024 424.234146,170.490528 C419.291057,168.343031 414.996748,165.246279 411.35122,161.200271 C407.705691,157.154263 404.817073,152.17456 402.685366,146.261164 C400.553659,140.347767 399.487805,133.594046 399.487805,126 C399.487805,118.654939 400.553659,112.041272 402.685366,106.158999 C404.817073,100.276725 407.782927,95.2814614 411.582927,91.173207 C415.382927,87.0649526 419.92439,83.905954 425.207317,81.6962111 C430.490244,79.4864682 436.282927,78.3815968 442.585366,78.3815968 C447.960976,78.3815968 452.394309,78.9418133 455.885366,80.0622463 C459.376423,81.1826793 462.265041,82.3964817 464.55122,83.7036536 C466.837398,85.0108254 468.721951,86.2246279 470.204878,87.3450609 C471.687805,88.4654939 473.139837,89.0257104 474.560976,89.0257104 C475.920325,89.0257104 476.986179,88.7456022 477.758537,88.1853857 C478.530894,87.6251691 479.164228,86.9715832 479.658537,86.2246279 L479.658537,86.2246279 L488,74.5534506 C482.686179,69.2625169 476.306504,65.0142084 468.860976,61.808525 C461.415447,58.6028417 452.718699,57 442.770732,57 C432.57561,57 423.260976,58.6962111 414.826829,62.0886333 C406.392683,65.4810555 399.147967,70.2273342 393.092683,76.3274696 C387.037398,82.4276049 382.341463,89.6948579 379.004878,98.1292287 C375.668293,106.563599 374,115.853857 374,126 C374,136.021651 375.498374,145.265223 378.495122,153.730717 C381.49187,162.196211 385.801626,169.479026 391.42439,175.579161 C397.047154,181.679296 403.828455,186.441137 411.768293,189.864682 C419.70813,193.288227 428.652033,195 438.6,195 Z M546.138916,194 C553.23908,194 559.675534,192.856512 565.448276,190.569536 C571.221018,188.282561 576.144828,185.006623 580.219704,180.741722 C584.294581,176.476821 587.44335,171.315673 589.66601,165.258278 C591.88867,159.200883 593,152.401766 593,144.860927 C593,137.381898 591.88867,130.613687 589.66601,124.556291 C587.44335,118.498896 584.294581,113.368653 580.219704,109.165563 C576.144828,104.962472 571.221018,101.717439 565.448276,99.4304636 C559.675534,97.1434879 553.23908,96 546.138916,96 C539.038752,96 532.586864,97.1434879 526.783251,99.4304636 C520.979639,101.717439 516.024959,104.962472 511.919212,109.165563 C507.813465,113.368653 504.633826,118.498896 502.380296,124.556291 C500.126765,130.613687 499,137.381898 499,144.860927 C499,152.401766 500.126765,159.200883 502.380296,165.258278 C504.633826,171.315673 507.813465,176.476821 511.919212,180.741722 C516.024959,185.006623 520.979639,188.282561 526.783251,190.569536 C532.586864,192.856512 539.038752,194 546.138916,194 Z M545.639604,177 C537.573597,177 531.617162,174.320796 527.770297,168.962389 C523.923432,163.603982 522,155.814159 522,145.59292 C522,135.371681 523.923432,127.550885 527.770297,122.130531 C531.617162,116.710177 537.573597,114 545.639604,114 C553.581518,114 559.460396,116.69469 563.276238,122.084071 C567.092079,127.473451 569,135.309735 569,145.59292 C569,155.876106 567.092079,163.681416 563.276238,169.00885 C559.460396,174.336283 553.581518,177 545.639604,177 Z M632.968772,192 L632.968772,122.089251 C635.448531,119.234485 638.129771,116.984805 641.012491,115.340211 C643.895212,113.695617 646.979412,112.873321 650.265094,112.873321 C655.286607,112.873321 659.083738,114.331734 661.656489,117.24856 C664.229239,120.165387 665.515614,124.819898 665.515614,131.212092 L665.515614,131.212092 L665.515614,192 L688.577377,192 L688.577377,131.212092 C688.577377,128.233205 689.011335,125.595649 689.879251,123.299424 C690.747166,121.003199 691.940551,119.09485 693.459403,117.574376 C694.978256,116.053903 696.745084,114.890275 698.759889,114.083493 C700.774693,113.276711 702.959981,112.873321 705.315753,112.873321 C710.461254,112.873321 714.366875,114.409309 717.032616,117.481286 C719.698358,120.553263 721.031228,125.130198 721.031228,131.212092 L721.031228,131.212092 L721.031228,192 L744,192 L744,131.212092 C744,125.440499 743.271571,120.320537 741.814712,115.852207 C740.357853,111.383877 738.234559,107.598209 735.44483,104.495202 C732.655101,101.392194 729.214434,99.0339091 725.122831,97.4203455 C721.031228,95.8067818 716.350682,95 711.081194,95 C708.043488,95 705.021282,95.3413308 702.014573,96.0239923 C699.007865,96.7066539 696.17164,97.7616763 693.505899,99.1890595 C690.840157,100.616443 688.391395,102.462732 686.159611,104.727927 C683.927828,106.993122 682.068008,109.708253 680.580153,112.873321 C678.658339,107.474088 675.76012,103.145393 671.885496,99.8872361 C668.010872,96.6290787 663.066852,95 657.053435,95 C654.201712,95 651.582466,95.3258157 649.195697,95.9774472 C646.808929,96.6290787 644.577146,97.5134357 642.500347,98.6305182 C640.423548,99.7476008 638.470738,101.081894 636.641915,102.633397 C634.813093,104.184901 633.061763,105.891555 631.387925,107.753359 L631.387925,107.753359 L629.900069,100.678503 C628.97016,97.8857965 627.017349,96.4894434 624.041638,96.4894434 L624.041638,96.4894434 L610,96.4894434 L610,192 L632.968772,192 Z M790.763771,224 L790.763771,184.73913 C793.712924,187.668116 797.046081,189.958333 800.763242,191.609783 C804.480403,193.261232 809.011653,194.086957 814.356992,194.086957 C820.5625,194.086957 826.168962,192.825 831.176377,190.301087 C836.183792,187.777174 840.453919,184.271739 843.986758,179.784783 C847.519597,175.297826 850.238347,170.000725 852.143008,163.893478 C854.047669,157.786232 855,151.149275 855,143.982609 C855,136.130435 854.155191,129.166304 852.465572,123.090217 C850.775953,117.01413 848.379767,111.903986 845.277013,107.759783 C842.174258,103.61558 838.487818,100.452899 834.217691,98.2717391 C829.947564,96.0905797 825.231992,95 820.070975,95 C813.435381,95 807.644597,96.3710145 802.698623,99.1130435 C797.752648,101.855072 793.375,105.438406 789.565678,109.863043 L789.565678,109.863043 L787.722458,100.982609 C787.415254,99.5492754 786.739407,98.4898551 785.694915,97.8043478 C784.650424,97.1188406 783.39089,96.776087 781.916314,96.776087 L781.916314,96.776087 L768,96.776087 L768,224 L790.763771,224 Z M809.366516,177 C805.841629,177 802.548643,176.364106 799.487557,175.092319 C796.426471,173.820532 793.597285,171.57164 791,168.345643 L791,168.345643 L791,125.539143 C793.906486,121.878877 797.044872,119.04062 800.415158,117.024372 C803.785445,115.008124 807.851433,114 812.613122,114 C815.643288,114 818.348793,114.558346 820.729638,115.675037 C823.110483,116.791728 825.135747,118.559823 826.80543,120.979321 C828.475113,123.398818 829.758296,126.547267 830.654977,130.424668 C831.551659,134.302068 832,139.032496 832,144.615953 C832,150.137371 831.474359,154.929838 830.423077,158.993353 C829.371795,163.056869 827.872172,166.422452 825.924208,169.090103 C823.976244,171.757755 821.5954,173.742984 818.781674,175.04579 C815.967949,176.348597 812.829563,177 809.366516,177 Z M913.138916,194 C920.23908,194 926.675534,192.856512 932.448276,190.569536 C938.221018,188.282561 943.144828,185.006623 947.219704,180.741722 C951.294581,176.476821 954.44335,171.315673 956.66601,165.258278 C958.88867,159.200883 960,152.401766 960,144.860927 C960,137.381898 958.88867,130.613687 956.66601,124.556291 C954.44335,118.498896 951.294581,113.368653 947.219704,109.165563 C943.144828,104.962472 938.221018,101.717439 932.448276,99.4304636 C926.675534,97.1434879 920.23908,96 913.138916,96 C906.038752,96 899.586864,97.1434879 893.783251,99.4304636 C887.979639,101.717439 883.024959,104.962472 878.919212,109.165563 C874.813465,113.368653 871.633826,118.498896 869.380296,124.556291 C867.126765,130.613687 866,137.381898 866,144.860927 C866,152.401766 867.126765,159.200883 869.380296,165.258278 C871.633826,171.315673 874.813465,176.476821 878.919212,180.741722 C883.024959,185.006623 887.979639,188.282561 893.783251,190.569536 C899.586864,192.856512 906.038752,194 913.138916,194 Z M913.639604,177 C905.573597,177 899.617162,174.320796 895.770297,168.962389 C891.923432,163.603982 890,155.814159 890,145.59292 C890,135.371681 891.923432,127.550885 895.770297,122.130531 C899.617162,116.710177 905.573597,114 913.639604,114 C921.581518,114 927.460396,116.69469 931.276238,122.084071 C935.092079,127.473451 937,135.309735 937,145.59292 C937,155.876106 935.092079,163.681416 931.276238,169.00885 C927.460396,174.336283 921.581518,177 913.639604,177 Z M1002.99739,194 C1009.11488,194 1014.53721,193.212665 1019.26436,191.637996 C1023.99151,190.063327 1027.96171,187.871141 1031.17493,185.061437 C1034.38816,182.251733 1036.82898,178.917139 1038.49739,175.057656 C1040.1658,171.198173 1041,166.983617 1041,162.413989 C1041,158.585381 1040.33573,155.312539 1039.00718,152.595463 C1037.67863,149.878387 1035.91754,147.547259 1033.72389,145.602079 C1031.53024,143.6569 1029.04308,142.051355 1026.2624,140.785444 C1023.48172,139.519534 1020.63925,138.392565 1017.73499,137.404537 C1014.83072,136.416509 1011.98825,135.505671 1009.20757,134.672023 C1006.42689,133.838374 1003.93973,132.89666 1001.74608,131.846881 C999.552437,130.797101 997.79134,129.577505 996.462794,128.188091 C995.134247,126.798677 994.469974,125.085066 994.469974,123.047259 C994.469974,119.959672 995.767624,117.458727 998.362924,115.544423 C1000.95822,113.63012 1004.51131,112.672968 1009.02219,112.672968 C1011.92646,112.672968 1014.44452,112.981727 1016.57637,113.599244 C1018.70822,114.216761 1020.60836,114.911468 1022.27676,115.683365 C1023.94517,116.455261 1025.41275,117.149968 1026.6795,117.767486 C1027.94626,118.385003 1029.13577,118.693762 1030.24804,118.693762 C1031.29852,118.693762 1032.16362,118.493069 1032.84334,118.091682 C1033.52306,117.690296 1034.17189,116.995589 1034.78982,116.007561 L1034.78982,116.007561 L1039.98042,107.763705 C1036.39643,104.243856 1031.91645,101.403277 1026.54047,99.241966 C1021.16449,97.0806553 1015.20148,96 1008.65144,96 C1002.78111,96 997.605962,96.7873346 993.125979,98.3620038 C988.645997,99.936673 984.907528,102.036232 981.910574,104.660681 C978.913621,107.285129 976.642733,110.357278 975.097911,113.877127 C973.55309,117.396975 972.780679,121.102079 972.780679,124.992439 C972.780679,129.191556 973.444952,132.773157 974.773499,135.73724 C976.102045,138.701323 977.863142,141.202268 980.056789,143.240076 C982.250435,145.277883 984.753046,146.960618 987.564621,148.28828 C990.376197,149.615942 993.249565,150.773787 996.184726,151.761815 C999.119887,152.749842 1001.99326,153.660681 1004.80483,154.494329 C1007.61641,155.327977 1010.11902,156.269691 1012.31266,157.319471 C1014.50631,158.36925 1016.26741,159.604285 1017.59595,161.024575 C1018.9245,162.444865 1019.58877,164.266541 1019.58877,166.489603 C1019.58877,167.971645 1019.29526,169.407372 1018.70822,170.796786 C1018.12119,172.1862 1017.1943,173.405797 1015.92755,174.455577 C1014.66079,175.505356 1013.05418,176.354442 1011.1077,177.002836 C1009.16123,177.651229 1006.82855,177.975425 1004.10966,177.975425 C1000.64926,177.975425 997.79134,177.574039 995.535901,176.771267 C993.280461,175.968494 991.318538,175.10397 989.650131,174.177694 C987.981723,173.251418 986.514143,172.386894 985.247389,171.584121 C983.980635,170.781348 982.636641,170.379962 981.215405,170.379962 C979.794169,170.379962 978.620104,170.657845 977.693211,171.213611 C976.766319,171.769376 975.963011,172.572149 975.28329,173.621928 L975.28329,173.621928 L970,182.328922 C971.853786,183.996219 974.001088,185.540013 976.441906,186.960302 C978.882724,188.380592 981.539817,189.615627 984.413185,190.665406 C987.286554,191.715186 990.283507,192.533396 993.404047,193.120038 C996.524587,193.706679 999.722367,194 1002.99739,194 Z M1099.88901,194 C1103.23159,194 1106.6825,193.752759 1110.24173,193.258278 C1113.80096,192.763797 1117.29829,191.913907 1120.73372,190.708609 C1124.16916,189.503311 1127.46531,187.896247 1130.6222,185.887417 C1133.77908,183.878587 1136.62647,181.390728 1139.16435,178.423841 L1139.16435,178.423841 L1132.47919,170.07947 C1131.98399,169.399558 1131.39594,168.874172 1130.71505,168.503311 C1130.03415,168.13245 1129.22946,167.94702 1128.30096,167.94702 C1126.87727,167.94702 1125.40715,168.379691 1123.89061,169.245033 C1122.37407,170.110375 1120.60993,171.068433 1118.59819,172.119205 C1116.58645,173.169978 1114.23426,174.128035 1111.54162,174.993377 C1108.84899,175.85872 1105.64568,176.291391 1101.9317,176.291391 C1094.37994,176.291391 1088.31377,174.004415 1083.73319,169.430464 C1079.15261,164.856512 1076.52188,157.686534 1075.84098,147.92053 L1075.84098,147.92053 L1134.70758,147.92053 C1135.75987,147.92053 1136.62647,147.781457 1137.30736,147.503311 C1137.98826,147.225166 1138.52988,146.761589 1138.93223,146.112583 C1139.33458,145.463576 1139.61313,144.567329 1139.76788,143.423841 C1139.92263,142.280353 1140,140.843267 1140,139.112583 C1140,132.251656 1138.97866,126.147903 1136.93597,120.801325 C1134.89328,115.454746 1132.04589,110.942605 1128.39381,107.264901 C1124.74173,103.587196 1120.39328,100.790287 1115.34845,98.8741722 C1110.30363,96.9580574 1104.77908,96 1098.77481,96 C1091.65635,96 1085.26521,97.2362031 1079.60139,99.7086093 C1073.93757,102.181015 1069.14034,105.534216 1065.20971,109.768212 C1061.27908,114.002208 1058.26147,118.977925 1056.15688,124.695364 C1054.05229,130.412804 1053,136.516556 1053,143.006623 C1053,151.350993 1054.20704,158.690949 1056.62113,165.02649 C1059.03522,171.362031 1062.34685,176.677704 1066.55603,180.97351 C1070.76521,185.269316 1075.71718,188.514349 1081.41195,190.708609 C1087.10672,192.90287 1093.26574,194 1099.88901,194 Z M1119,134 L1076,134 C1077.05029,126.980057 1079.45977,121.558405 1083.22845,117.735043 C1086.99713,113.911681 1092.21767,112 1098.89009,112 C1102.28807,112 1105.25359,112.579772 1107.78664,113.739316 C1110.31968,114.89886 1112.42026,116.481481 1114.08836,118.487179 C1115.75647,120.492877 1116.9921,122.827635 1117.79526,125.491453 C1118.59842,128.155271 1119,130.991453 1119,134 L1119,134 Z" id="Compose" fill="#252D39" fill-rule="nonzero"></path>
        <rect id="Rectangle-Copy-20" stroke="#5E98FF" stroke-width="4" x="33" y="175" width="80" height="47" rx="10"></rect>
        <rect id="Rectangle-Copy-25" stroke="#5E98FF" stroke-width="4" x="33" y="45" width="80" height="47" rx="10"></rect>
        <path d="M161,175 L133,175 C127.477153,175 123,179.477153 123,185 L123,212 C123,217.522847 127.477153,222 133,222 L161,222 L161,222" id="Path-3-Copy-19" stroke="#60ADFF" stroke-width="4"></path>
        <path d="M161,45 L133,45 C127.477153,45 123,49.4771525 123,55 L123,82 C123,87.5228475 127.477153,92 133,92 L161,92 L161,92" id="Path-3-Copy-20" stroke="#60ADFF" stroke-width="4"></path>
        <path d="M296,43 L175,43 C167.268014,43 161,49.2680135 161,57 L161,80 C161,87.7319865 167.268014,94 175,94 L296,94 L296,94 L296,43 Z" id="Path-3-Copy-21" fill="url(#linearGradient-1)" transform="translate(228.500000, 68.500000) rotate(180.000000) translate(-228.500000, -68.500000) "></path>
        <path d="M245,173 L175,173 C167.268014,173 161,179.268014 161,187 L161,210 C161,217.731986 167.268014,224 175,224 L245,224 L245,224 L245,173 Z" id="Path-3-Copy-22" fill="url(#linearGradient-2)" transform="translate(203.000000, 198.500000) rotate(180.000000) translate(-203.000000, -198.500000) "></path>
        <path d="M223,108 L175,108 C167.268014,108 161,114.268014 161,122 L161,145 C161,152.731986 167.268014,159 175,159 L223,159 L223,159 L223,108 Z" id="Path-3-Copy-23" fill="url(#linearGradient-3)" transform="translate(192.000000, 133.500000) rotate(180.000000) translate(-192.000000, -133.500000) "></path>
        <path d="M161,110 L95,110 C89.4771525,110 85,114.477153 85,120 L85,147 C85,152.522847 89.4771525,157 95,157 L161,157 L161,157" id="Path-3-Copy-24" stroke="#60ADFF" stroke-width="4"></path>
        <path d="M165.264098,20.6081382 L174.528951,33.6879306 C175.805872,35.4906421 175.379634,37.9871773 173.576922,39.2640979 C172.901014,39.7428662 172.093147,40 171.264853,40 L152.735147,40 C150.526008,40 148.735147,38.209139 148.735147,36 C148.735147,35.1717061 148.992281,34.3638387 149.471049,33.6879306 L158.735902,20.6081382 C160.012823,18.8054267 162.509358,18.379189 164.312069,19.6561097 C164.680924,19.9173818 165.002826,20.2392836 165.264098,20.6081382 Z" id="Triangle-Copy-2" fill="#012978" transform="translate(162.000000, 28.000000) scale(-1, -1) translate(-162.000000, -28.000000) "></path>
        <line x1="161.5" y1="28" x2="161.5" y2="236" id="Line-2-Copy-3" stroke="#012978" stroke-width="4" stroke-linecap="round"></line>
    </g>
</svg>