<svg xmlns="http://www.w3.org/2000/svg" width="633" height="253" viewBox="0 0 633 253">
  <defs>
    <linearGradient id="composer_horizontal-a" x1="161.086%" x2="-20.952%" y1="73.373%" y2="11.974%">
      <stop offset="0%" stop-color="#61BEFF"/>
      <stop offset="100%" stop-color="#5D86FF"/>
    </linearGradient>
    <linearGradient id="composer_horizontal-b" x1="161.086%" x2="-20.952%" y1="110.371%" y2="-48.219%">
      <stop offset="0%" stop-color="#61BEFF"/>
      <stop offset="100%" stop-color="#5D86FF"/>
    </linearGradient>
    <linearGradient id="composer_horizontal-c" x1="161.086%" x2="-20.952%" y1="160.817%" y2="-130.289%">
      <stop offset="0%" stop-color="#61BEFF"/>
      <stop offset="100%" stop-color="#5D86FF"/>
    </linearGradient>
  </defs>
  <g fill="none" fill-rule="evenodd">
    <rect width="633" height="253" fill="#FFF"/>
    <rect width="80" height="47" x="33" y="175" stroke="#5E98FF" stroke-width="4" rx="10"/>
    <rect width="80" height="47" x="33" y="45" stroke="#5E98FF" stroke-width="4" rx="10"/>
    <path stroke="#60ADFF" stroke-width="4" d="M161 175L133 175C127.477153 175 123 179.477153 123 185L123 212C123 217.522847 127.477153 222 133 222L161 222 161 222M161 45L133 45C127.477153 45 123 49.4771525 123 55L123 82C123 87.5228475 127.477153 92 133 92L161 92 161 92"/>
    <path fill="url(#composer_horizontal-a)" d="M296,43 L175,43 C167.268014,43 161,49.2680135 161,57 L161,80 C161,87.7319865 167.268014,94 175,94 L296,94 L296,94 L296,43 Z" transform="rotate(180 228.5 68.5)"/>
    <path fill="url(#composer_horizontal-b)" d="M245,173 L175,173 C167.268014,173 161,179.268014 161,187 L161,210 C161,217.731986 167.268014,224 175,224 L245,224 L245,224 L245,173 Z" transform="rotate(180 203 198.5)"/>
    <path fill="url(#composer_horizontal-c)" d="M223,108 L175,108 C167.268014,108 161,114.268014 161,122 L161,145 C161,152.731986 167.268014,159 175,159 L223,159 L223,159 L223,108 Z" transform="rotate(180 192 133.5)"/>
    <path stroke="#60ADFF" stroke-width="4" d="M161,110 L95,110 C89.4771525,110 85,114.477153 85,120 L85,147 C85,152.522847 89.4771525,157 95,157 L161,157 L161,157"/>
    <path fill="#012978" d="M165.264098,20.6081382 L174.528951,33.6879306 C175.805872,35.4906421 175.379634,37.9871773 173.576922,39.2640979 C172.901014,39.7428662 172.093147,40 171.264853,40 L152.735147,40 C150.526008,40 148.735147,38.209139 148.735147,36 C148.735147,35.1717061 148.992281,34.3638387 149.471049,33.6879306 L158.735902,20.6081382 C160.012823,18.8054267 162.509358,18.379189 164.312069,19.6561097 C164.680924,19.9173818 165.002826,20.2392836 165.264098,20.6081382 Z" transform="rotate(180 162 28)"/>
    <line x1="161.5" x2="161.5" y1="28" y2="236" stroke="#012978" stroke-linecap="round" stroke-width="4"/>
    <path fill="#252D39" fill-rule="nonzero" d="M351.175,148.48 C354.775,148.48 357.86,147.9 360.43,146.74 C363,145.58 365.165,143.91 366.925,141.73 L366.925,141.73 L363.745,138.28 C363.425,137.94 363.045,137.77 362.605,137.77 C362.345,137.77 362.105,137.825 361.885,137.935 C361.665,138.045 361.455,138.19 361.255,138.37 C360.595,138.97 359.93,139.475 359.26,139.885 C358.59,140.295 357.88,140.63 357.13,140.89 C356.38,141.15 355.56,141.34 354.67,141.46 C353.78,141.58 352.785,141.64 351.685,141.64 C349.845,141.64 348.125,141.295 346.525,140.605 C344.925,139.915 343.535,138.92 342.355,137.62 C341.175,136.32 340.24,134.72 339.55,132.82 C338.86,130.92 338.515,128.75 338.515,126.31 C338.515,123.95 338.86,121.825 339.55,119.935 C340.24,118.045 341.2,116.44 342.43,115.12 C343.66,113.8 345.13,112.785 346.84,112.075 C348.55,111.365 350.425,111.01 352.465,111.01 C354.205,111.01 355.64,111.19 356.77,111.55 C357.9,111.91 358.835,112.3 359.575,112.72 C360.315,113.14 360.925,113.53 361.405,113.89 C361.885,114.25 362.355,114.43 362.815,114.43 C363.255,114.43 363.6,114.34 363.85,114.16 C364.1,113.98 364.305,113.77 364.465,113.53 L364.465,113.53 L367.165,109.78 C365.445,108.08 363.38,106.715 360.97,105.685 C358.56,104.655 355.745,104.14 352.525,104.14 C349.225,104.14 346.21,104.685 343.48,105.775 C340.75,106.865 338.405,108.39 336.445,110.35 C334.485,112.31 332.965,114.645 331.885,117.355 C330.805,120.065 330.265,123.05 330.265,126.31 C330.265,129.53 330.75,132.5 331.72,135.22 C332.69,137.94 334.085,140.28 335.905,142.24 C337.725,144.2 339.92,145.73 342.49,146.83 C345.06,147.93 347.955,148.48 351.175,148.48 Z M385.735,148.45 C388.035,148.45 390.12,148.08 391.99,147.34 C393.86,146.6 395.455,145.54 396.775,144.16 C398.095,142.78 399.115,141.11 399.835,139.15 C400.555,137.19 400.915,134.99 400.915,132.55 C400.915,130.13 400.555,127.94 399.835,125.98 C399.115,124.02 398.095,122.36 396.775,121 C395.455,119.64 393.86,118.59 391.99,117.85 C390.12,117.11 388.035,116.74 385.735,116.74 C383.435,116.74 381.345,117.11 379.465,117.85 C377.585,118.59 375.98,119.64 374.65,121 C373.32,122.36 372.29,124.02 371.56,125.98 C370.83,127.94 370.465,130.13 370.465,132.55 C370.465,134.99 370.83,137.19 371.56,139.15 C372.29,141.11 373.32,142.78 374.65,144.16 C375.98,145.54 377.585,146.6 379.465,147.34 C381.345,148.08 383.435,148.45 385.735,148.45 Z M385.735,142.75 C383.135,142.75 381.215,141.885 379.975,140.155 C378.735,138.425 378.115,135.91 378.115,132.61 C378.115,129.31 378.735,126.785 379.975,125.035 C381.215,123.285 383.135,122.41 385.735,122.41 C388.295,122.41 390.19,123.28 391.42,125.02 C392.65,126.76 393.265,129.29 393.265,132.61 C393.265,135.93 392.65,138.45 391.42,140.17 C390.19,141.89 388.295,142.75 385.735,142.75 Z M414.115,148 L414.115,125.47 C414.915,124.55 415.78,123.825 416.71,123.295 C417.64,122.765 418.635,122.5 419.695,122.5 C421.315,122.5 422.54,122.97 423.37,123.91 C424.2,124.85 424.615,126.35 424.615,128.41 L424.615,128.41 L424.615,148 L432.055,148 L432.055,128.41 C432.055,127.45 432.195,126.6 432.475,125.86 C432.755,125.12 433.14,124.505 433.63,124.015 C434.12,123.525 434.69,123.15 435.34,122.89 C435.99,122.63 436.695,122.5 437.455,122.5 C439.115,122.5 440.375,122.995 441.235,123.985 C442.095,124.975 442.525,126.45 442.525,128.41 L442.525,128.41 L442.525,148 L449.935,148 L449.935,128.41 C449.935,126.55 449.7,124.9 449.23,123.46 C448.76,122.02 448.075,120.8 447.175,119.8 C446.275,118.8 445.165,118.04 443.845,117.52 C442.525,117 441.015,116.74 439.315,116.74 C438.335,116.74 437.36,116.85 436.39,117.07 C435.42,117.29 434.505,117.63 433.645,118.09 C432.785,118.55 431.995,119.145 431.275,119.875 C430.555,120.605 429.955,121.48 429.475,122.5 C428.855,120.76 427.92,119.365 426.67,118.315 C425.42,117.265 423.825,116.74 421.885,116.74 C420.965,116.74 420.12,116.845 419.35,117.055 C418.58,117.265 417.86,117.55 417.19,117.91 C416.52,118.27 415.89,118.7 415.3,119.2 C414.71,119.7 414.145,120.25 413.605,120.85 L413.605,120.85 L413.125,118.57 C412.825,117.67 412.195,117.22 411.235,117.22 L411.235,117.22 L406.705,117.22 L406.705,148 L414.115,148 Z M464.635,158.05 L464.635,145.45 C465.595,146.39 466.68,147.125 467.89,147.655 C469.1,148.185 470.575,148.45 472.315,148.45 C474.335,148.45 476.16,148.045 477.79,147.235 C479.42,146.425 480.81,145.3 481.96,143.86 C483.11,142.42 483.995,140.72 484.615,138.76 C485.235,136.8 485.545,134.67 485.545,132.37 C485.545,129.85 485.27,127.615 484.72,125.665 C484.17,123.715 483.39,122.075 482.38,120.745 C481.37,119.415 480.17,118.4 478.78,117.7 C477.39,117 475.855,116.65 474.175,116.65 C472.015,116.65 470.13,117.09 468.52,117.97 C466.91,118.85 465.485,120 464.245,121.42 L464.245,121.42 L463.645,118.57 C463.545,118.11 463.325,117.77 462.985,117.55 C462.645,117.33 462.235,117.22 461.755,117.22 L461.755,117.22 L457.225,117.22 L457.225,158.05 L464.635,158.05 Z M470.575,142.81 C469.435,142.81 468.37,142.605 467.38,142.195 C466.39,141.785 465.475,141.06 464.635,140.02 L464.635,140.02 L464.635,126.22 C465.575,125.04 466.59,124.125 467.68,123.475 C468.77,122.825 470.085,122.5 471.625,122.5 C472.605,122.5 473.48,122.68 474.25,123.04 C475.02,123.4 475.675,123.97 476.215,124.75 C476.755,125.53 477.17,126.545 477.46,127.795 C477.75,129.045 477.895,130.57 477.895,132.37 C477.895,134.15 477.725,135.695 477.385,137.005 C477.045,138.315 476.56,139.4 475.93,140.26 C475.3,141.12 474.53,141.76 473.62,142.18 C472.71,142.6 471.695,142.81 470.575,142.81 Z M504.295,148.45 C506.595,148.45 508.68,148.08 510.55,147.34 C512.42,146.6 514.015,145.54 515.335,144.16 C516.655,142.78 517.675,141.11 518.395,139.15 C519.115,137.19 519.475,134.99 519.475,132.55 C519.475,130.13 519.115,127.94 518.395,125.98 C517.675,124.02 516.655,122.36 515.335,121 C514.015,119.64 512.42,118.59 510.55,117.85 C508.68,117.11 506.595,116.74 504.295,116.74 C501.995,116.74 499.905,117.11 498.025,117.85 C496.145,118.59 494.54,119.64 493.21,121 C491.88,122.36 490.85,124.02 490.12,125.98 C489.39,127.94 489.025,130.13 489.025,132.55 C489.025,134.99 489.39,137.19 490.12,139.15 C490.85,141.11 491.88,142.78 493.21,144.16 C494.54,145.54 496.145,146.6 498.025,147.34 C499.905,148.08 501.995,148.45 504.295,148.45 Z M504.295,142.75 C501.695,142.75 499.775,141.885 498.535,140.155 C497.295,138.425 496.675,135.91 496.675,132.61 C496.675,129.31 497.295,126.785 498.535,125.035 C499.775,123.285 501.695,122.41 504.295,122.41 C506.855,122.41 508.75,123.28 509.98,125.02 C511.21,126.76 511.825,129.29 511.825,132.61 C511.825,135.93 511.21,138.45 509.98,140.17 C508.75,141.89 506.855,142.75 504.295,142.75 Z M533.245,148.48 C535.225,148.48 536.98,148.225 538.51,147.715 C540.04,147.205 541.325,146.495 542.365,145.585 C543.405,144.675 544.195,143.595 544.735,142.345 C545.275,141.095 545.545,139.73 545.545,138.25 C545.545,137.01 545.33,135.95 544.9,135.07 C544.47,134.19 543.9,133.435 543.19,132.805 C542.48,132.175 541.675,131.655 540.775,131.245 C539.875,130.835 538.955,130.47 538.015,130.15 C537.075,129.83 536.155,129.535 535.255,129.265 C534.355,128.995 533.55,128.69 532.84,128.35 C532.13,128.01 531.56,127.615 531.13,127.165 C530.7,126.715 530.485,126.16 530.485,125.5 C530.485,124.5 530.905,123.69 531.745,123.07 C532.585,122.45 533.735,122.14 535.195,122.14 C536.135,122.14 536.95,122.24 537.64,122.44 C538.33,122.64 538.945,122.865 539.485,123.115 C540.025,123.365 540.5,123.59 540.91,123.79 C541.32,123.99 541.705,124.09 542.065,124.09 C542.405,124.09 542.685,124.025 542.905,123.895 C543.125,123.765 543.335,123.54 543.535,123.22 L543.535,123.22 L545.215,120.55 C544.055,119.41 542.605,118.49 540.865,117.79 C539.125,117.09 537.195,116.74 535.075,116.74 C533.175,116.74 531.5,116.995 530.05,117.505 C528.6,118.015 527.39,118.695 526.42,119.545 C525.45,120.395 524.715,121.39 524.215,122.53 C523.715,123.67 523.465,124.87 523.465,126.13 C523.465,127.49 523.68,128.65 524.11,129.61 C524.54,130.57 525.11,131.38 525.82,132.04 C526.53,132.7 527.34,133.245 528.25,133.675 C529.16,134.105 530.09,134.48 531.04,134.8 C531.99,135.12 532.92,135.415 533.83,135.685 C534.74,135.955 535.55,136.26 536.26,136.6 C536.97,136.94 537.54,137.34 537.97,137.8 C538.4,138.26 538.615,138.85 538.615,139.57 C538.615,140.05 538.52,140.515 538.33,140.965 C538.14,141.415 537.84,141.81 537.43,142.15 C537.02,142.49 536.5,142.765 535.87,142.975 C535.24,143.185 534.485,143.29 533.605,143.29 C532.485,143.29 531.56,143.16 530.83,142.9 C530.1,142.64 529.465,142.36 528.925,142.06 C528.385,141.76 527.91,141.48 527.5,141.22 C527.09,140.96 526.655,140.83 526.195,140.83 C525.735,140.83 525.355,140.92 525.055,141.1 C524.755,141.28 524.495,141.54 524.275,141.88 L524.275,141.88 L522.565,144.7 C523.165,145.24 523.86,145.74 524.65,146.2 C525.44,146.66 526.3,147.06 527.23,147.4 C528.16,147.74 529.13,148.005 530.14,148.195 C531.15,148.385 532.185,148.48 533.245,148.48 Z M564.565,148.45 C565.645,148.45 566.76,148.37 567.91,148.21 C569.06,148.05 570.19,147.775 571.3,147.385 C572.41,146.995 573.475,146.475 574.495,145.825 C575.515,145.175 576.435,144.37 577.255,143.41 L577.255,143.41 L575.095,140.71 C574.935,140.49 574.745,140.32 574.525,140.2 C574.305,140.08 574.045,140.02 573.745,140.02 C573.285,140.02 572.81,140.16 572.32,140.44 C571.83,140.72 571.26,141.03 570.61,141.37 C569.96,141.71 569.2,142.02 568.33,142.3 C567.46,142.58 566.425,142.72 565.225,142.72 C562.785,142.72 560.825,141.98 559.345,140.5 C557.865,139.02 557.015,136.7 556.795,133.54 L556.795,133.54 L575.815,133.54 C576.155,133.54 576.435,133.495 576.655,133.405 C576.875,133.315 577.05,133.165 577.18,132.955 C577.31,132.745 577.4,132.455 577.45,132.085 C577.5,131.715 577.525,131.25 577.525,130.69 C577.525,128.47 577.195,126.495 576.535,124.765 C575.875,123.035 574.955,121.575 573.775,120.385 C572.595,119.195 571.19,118.29 569.56,117.67 C567.93,117.05 566.145,116.74 564.205,116.74 C561.905,116.74 559.84,117.14 558.01,117.94 C556.18,118.74 554.63,119.825 553.36,121.195 C552.09,122.565 551.115,124.175 550.435,126.025 C549.755,127.875 549.415,129.85 549.415,131.95 C549.415,134.65 549.805,137.025 550.585,139.075 C551.365,141.125 552.435,142.845 553.795,144.235 C555.155,145.625 556.755,146.675 558.595,147.385 C560.435,148.095 562.425,148.45 564.565,148.45 Z M570.865,129.07 L556.945,129.07 C557.285,126.83 558.065,125.1 559.285,123.88 C560.505,122.66 562.195,122.05 564.355,122.05 C565.455,122.05 566.415,122.235 567.235,122.605 C568.055,122.975 568.735,123.48 569.275,124.12 C569.815,124.76 570.215,125.505 570.475,126.355 C570.735,127.205 570.865,128.11 570.865,129.07 L570.865,129.07 Z"/>
  </g>
</svg>
